<svg version="1.1" id="Layer_1" xmlns="http://www.w3.org/2000/svg" xmlns:xlink="http://www.w3.org/1999/xlink" x="0px" y="0px"
	 width="100%" viewBox="0 0 190 191" enable-background="new 0 0 190 191" xml:space="preserve">
<path fill="transparent" opacity="1.000000" stroke="none" 
	d="
M121.000000,192.000000 
	C80.692818,192.000000 40.885639,192.000000 1.039229,192.000000 
	C1.039229,128.401306 1.039229,64.802582 1.039229,1.101929 
	C64.223656,1.101929 127.447525,1.101929 190.835693,1.101929 
	C190.835693,64.666321 190.835693,128.333130 190.835693,192.000000 
	C167.802887,192.000000 144.651443,192.000000 121.000000,192.000000 
M151.613693,119.976364 
	C143.822418,130.883560 133.603455,137.115540 119.624077,137.115829 
	C119.624077,135.491684 119.576019,134.496689 119.637932,133.508575 
	C119.697083,132.564697 119.870705,131.627991 120.020401,130.487015 
	C134.645370,129.432587 144.582275,122.368706 149.245453,108.513580 
	C152.753098,98.091721 150.607941,88.685570 144.072754,79.638832 
	C142.515823,81.094795 141.292419,82.174301 140.140839,83.325645 
	C127.530418,95.933601 114.973579,108.595619 102.296204,121.135818 
	C99.471214,123.930260 96.521889,126.797455 93.135475,128.791763 
	C77.956512,137.730911 63.317402,135.751053 49.066814,125.749023 
	C48.139660,126.569199 47.145462,127.415398 46.188095,128.301376 
	C42.171841,132.018158 38.166618,135.746841 34.344082,139.297684 
	C53.053322,169.679993 99.150513,185.746124 137.467682,160.866699 
	C173.909698,137.204803 180.071075,89.948242 162.380951,62.538719 
	C158.053345,66.605179 153.628799,70.762733 149.255630,74.872009 
	C159.480972,89.190544 160.811920,103.947960 151.613693,119.976364 
M47.323170,40.806313 
	C17.527416,66.424423 14.962143,108.821899 30.983240,133.391113 
	C35.241951,128.960052 39.484043,124.546288 43.722252,120.136559 
	C34.248222,107.036095 31.801598,92.781212 40.123688,77.931931 
	C47.198612,65.308014 58.131920,58.422104 73.222244,58.193657 
	C73.304329,59.495121 73.427650,60.459805 73.409424,61.421803 
	C73.388435,62.529419 73.242325,63.634663 73.152496,64.717606 
	C58.365429,66.195129 48.154915,73.271706 43.582535,87.325974 
	C40.247429,97.577202 42.644852,106.816811 49.230778,115.450882 
	C63.303394,101.394104 77.289780,88.037315 90.558098,74.001701 
	C104.516472,59.236126 126.352470,56.039986 143.538681,69.318665 
	C148.287186,64.466141 153.017395,59.632328 157.817764,54.726807 
	C136.372528,21.144106 84.521622,9.417438 47.323170,40.806313 
M57.025429,117.475815 
	C56.075794,118.499428 55.126160,119.523033 54.160545,120.563873 
	C67.366196,130.782257 83.807968,129.640030 96.009712,117.645248 
	C109.672859,104.213829 123.161804,90.605110 136.705429,77.052429 
	C137.457138,76.300232 138.015854,75.355171 138.661346,74.503906 
	C125.580193,64.534248 109.135780,65.652481 97.133698,77.426682 
	C83.813744,90.493744 70.718834,103.790207 57.025429,117.475815 
z"/>
<path fill="#be0b44" opacity="1.000000" stroke="none" 
	d="
M151.784912,119.650391 
	C160.811920,103.947960 159.480972,89.190544 149.255630,74.872009 
	C153.628799,70.762733 158.053345,66.605179 162.380951,62.538719 
	C180.071075,89.948242 173.909698,137.204803 137.467682,160.866699 
	C99.150513,185.746124 53.053322,169.679993 34.344082,139.297684 
	C38.166618,135.746841 42.171841,132.018158 46.188095,128.301376 
	C47.145462,127.415398 48.139660,126.569199 49.066814,125.749023 
	C63.317402,135.751053 77.956512,137.730911 93.135475,128.791763 
	C96.521889,126.797455 99.471214,123.930260 102.296204,121.135818 
	C114.973579,108.595619 127.530418,95.933601 140.140839,83.325645 
	C141.292419,82.174301 142.515823,81.094795 144.072754,79.638832 
	C150.607941,88.685570 152.753098,98.091721 149.245453,108.513580 
	C144.582275,122.368706 134.645370,129.432587 120.020401,130.487015 
	C119.870705,131.627991 119.697083,132.564697 119.637932,133.508575 
	C119.576019,134.496689 119.624077,135.491684 119.624077,137.115829 
	C133.603455,137.115540 143.822418,130.883560 151.784912,119.650391 
z"/>
<path fill="#be0b44" opacity="1.000000" stroke="none" 
	d="
M47.582283,40.564873 
	C84.521622,9.417438 136.372528,21.144106 157.817764,54.726807 
	C153.017395,59.632328 148.287186,64.466141 143.538681,69.318665 
	C126.352470,56.039986 104.516472,59.236126 90.558098,74.001701 
	C77.289780,88.037315 63.303394,101.394104 49.230778,115.450882 
	C42.644852,106.816811 40.247429,97.577202 43.582535,87.325974 
	C48.154915,73.271706 58.365429,66.195129 73.152496,64.717606 
	C73.242325,63.634663 73.388435,62.529419 73.409424,61.421803 
	C73.427650,60.459805 73.304329,59.495121 73.222244,58.193657 
	C58.131920,58.422104 47.198612,65.308014 40.123688,77.931931 
	C31.801598,92.781212 34.248222,107.036095 43.722252,120.136559 
	C39.484043,124.546288 35.241951,128.960052 30.983240,133.391113 
	C14.962143,108.821899 17.527416,66.424423 47.582283,40.564873 
z"/>
<path fill="#be0b44" opacity="1.000000" stroke="none" 
	d="
M57.275681,117.231308 
	C70.718834,103.790207 83.813744,90.493744 97.133698,77.426682 
	C109.135780,65.652481 125.580193,64.534248 138.661346,74.503906 
	C138.015854,75.355171 137.457138,76.300232 136.705429,77.052429 
	C123.161804,90.605110 109.672859,104.213829 96.009712,117.645248 
	C83.807968,129.640030 67.366196,130.782257 54.160545,120.563873 
	C55.126160,119.523033 56.075794,118.499428 57.275681,117.231308 
z"/>
</svg>