<svg version="1.1" id="Layer_1" xmlns="http://www.w3.org/2000/svg" xmlns:xlink="http://www.w3.org/1999/xlink" x="0px" y="0px"
	 width="100%" viewBox="0 0 190 191" xml:space="preserve">
<path fill="transparent" opacity="0.5" stroke="none" 
	d="
M121.000000,192.000000 
	C80.692818,192.000000 40.885639,192.000000 1.039229,192.000000 
	C1.039229,128.401306 1.039229,64.802582 1.039229,1.101929 
	C64.223656,1.101929 127.447525,1.101929 190.835693,1.101929 
	C190.835693,64.666321 190.835693,128.333130 190.835693,192.000000 
	C167.802887,192.000000 144.651443,192.000000 121.000000,192.000000 
M105.000023,118.500870 
	C102.991295,120.496780 101.061996,122.581047 98.958687,124.471741 
	C93.050613,129.782608 86.381111,133.236542 78.250412,134.095078 
	C67.328514,135.248337 57.658958,132.622589 48.421692,125.234428 
	C44.289677,129.648895 40.186775,133.774734 36.464241,138.219162 
	C35.688370,139.145508 35.655994,141.749329 36.400043,142.737534 
	C50.027546,160.836884 68.394119,171.035736 90.793938,172.820694 
	C108.977386,174.269653 125.482185,169.146973 140.696854,158.315765 
	C170.045258,137.422852 179.801819,97.161873 164.027039,64.998405 
	C162.785370,62.466743 161.240387,62.374184 159.378082,64.144218 
	C155.800949,67.544098 152.287064,71.010490 148.842422,74.356552 
	C160.674667,90.340408 160.385773,104.678017 153.028641,117.932396 
	C146.138550,130.345383 134.553177,137.391663 119.085129,137.206390 
	C120.128937,134.550262 117.238480,131.210114 122.265419,129.898758 
	C127.859573,128.439423 133.730698,126.726913 138.483643,123.605537 
	C152.483994,114.411186 154.973648,92.028275 143.614136,79.947800 
	C130.905579,92.635986 118.202904,105.318283 105.000023,118.500870 
M43.902390,86.556786 
	C40.315254,97.009369 42.482456,106.340790 49.185257,115.247681 
	C50.737045,113.771210 51.955082,112.661667 53.118618,111.497635 
	C66.073181,98.537636 79.007942,85.557823 91.972008,72.607330 
	C99.749718,64.837761 109.055069,60.929489 120.159584,60.925991 
	C129.052841,60.923187 136.571411,64.307655 143.118530,68.986168 
	C148.152252,64.067474 152.957642,59.371918 157.781387,54.658417 
	C133.750610,20.386505 86.855782,12.451313 53.647022,35.957542 
	C19.671703,60.006371 13.007338,104.302650 30.714912,133.120758 
	C35.024139,128.871658 39.362984,124.593353 43.698887,120.317947 
	C33.093315,106.386658 32.180634,89.435989 41.449085,75.350044 
	C48.959980,63.935204 61.046822,57.342300 73.489990,58.761055 
	C73.489990,60.995567 73.489990,63.241821 73.489990,65.636497 
	C58.600250,65.214149 49.700638,73.174973 43.902390,86.556786 
M73.531799,127.213890 
	C82.904854,127.791336 90.098770,123.562927 96.457512,117.138199 
	C109.341240,104.120781 122.356018,91.233093 135.306610,78.281769 
	C136.458054,77.130257 137.535278,75.904526 138.693069,74.663879 
	C124.236076,65.490128 110.354462,65.176476 99.542534,75.368759 
	C84.053909,89.969711 69.454849,105.514320 54.270966,120.863258 
	C59.792282,124.517921 65.636642,127.373070 73.531799,127.213890 
z"/>
<path fill="#fff" opacity="1.000000" stroke="none" 
	d="
M105.250130,118.250725 
	C118.202904,105.318283 130.905579,92.635986 143.614136,79.947800 
	C154.973648,92.028275 152.483994,114.411186 138.483643,123.605537 
	C133.730698,126.726913 127.859573,128.439423 122.265419,129.898758 
	C117.238480,131.210114 120.128937,134.550262 119.085129,137.206390 
	C134.553177,137.391663 146.138550,130.345383 153.028641,117.932396 
	C160.385773,104.678017 160.674667,90.340408 148.842422,74.356552 
	C152.287064,71.010490 155.800949,67.544098 159.378082,64.144218 
	C161.240387,62.374184 162.785370,62.466743 164.027039,64.998405 
	C179.801819,97.161873 170.045258,137.422852 140.696854,158.315765 
	C125.482185,169.146973 108.977386,174.269653 90.793938,172.820694 
	C68.394119,171.035736 50.027546,160.836884 36.400043,142.737534 
	C35.655994,141.749329 35.688370,139.145508 36.464241,138.219162 
	C40.186775,133.774734 44.289677,129.648895 48.421692,125.234428 
	C57.658958,132.622589 67.328514,135.248337 78.250412,134.095078 
	C86.381111,133.236542 93.050613,129.782608 98.958687,124.471741 
	C101.061996,122.581047 102.991295,120.496780 105.250130,118.250725 
z"/>
<path fill="#fff" opacity="1.000000" stroke="none" 
	d="
M43.958427,86.160049 
	C49.700638,73.174973 58.600250,65.214149 73.489990,65.636497 
	C73.489990,63.241821 73.489990,60.995567 73.489990,58.761055 
	C61.046822,57.342300 48.959980,63.935204 41.449085,75.350044 
	C32.180634,89.435989 33.093315,106.386658 43.698887,120.317947 
	C39.362984,124.593353 35.024139,128.871658 30.714912,133.120758 
	C13.007338,104.302650 19.671703,60.006371 53.647022,35.957542 
	C86.855782,12.451313 133.750610,20.386505 157.781387,54.658417 
	C152.957642,59.371918 148.152252,64.067474 143.118530,68.986168 
	C136.571411,64.307655 129.052841,60.923187 120.159584,60.925991 
	C109.055069,60.929489 99.749718,64.837761 91.972008,72.607330 
	C79.007942,85.557823 66.073181,98.537636 53.118618,111.497635 
	C51.955082,112.661667 50.737045,113.771210 49.185257,115.247681 
	C42.482456,106.340790 40.315254,97.009369 43.958427,86.160049 
z"/>
<path fill="#fff" opacity="1.000000" stroke="none" 
	d="
M73.063873,127.185349 
	C65.636642,127.373070 59.792282,124.517921 54.270966,120.863258 
	C69.454849,105.514320 84.053909,89.969711 99.542534,75.368759 
	C110.354462,65.176476 124.236076,65.490128 138.693069,74.663879 
	C137.535278,75.904526 136.458054,77.130257 135.306610,78.281769 
	C122.356018,91.233093 109.341240,104.120781 96.457512,117.138199 
	C90.098770,123.562927 82.904854,127.791336 73.063873,127.185349 
z"/>
</svg>